<svg width="32" height="32" viewBox="0 0 32 32" fill="none" xmlns="http://www.w3.org/2000/svg">
<path d="M21.3333 20C18.3866 21.7773 13.6106 21.7773 10.6666 20M25.3333 11.6134L18.2226 6.08269C17.5986 5.59723 16.8306 5.33366 16.04 5.33366C15.2494 5.33366 14.4813 5.59723 13.8573 6.08269L6.74529 11.6134C6.31788 11.9457 5.97208 12.3714 5.7343 12.8578C5.49651 13.3443 5.37304 13.8786 5.37329 14.42V24.02C5.37329 24.7273 5.65424 25.4055 6.15434 25.9056C6.65444 26.4057 7.33271 26.6867 8.03996 26.6867H24.04C24.7472 26.6867 25.4255 26.4057 25.9256 25.9056C26.4257 25.4055 26.7066 24.7273 26.7066 24.02V14.42C26.7066 13.3227 26.2 12.2867 25.3333 11.6134Z" stroke="black" stroke-width="2" stroke-linecap="round" stroke-linejoin="round"/>
</svg>
