<svg width="32" height="32" viewBox="0 0 32 32" fill="none" xmlns="http://www.w3.org/2000/svg">
<path d="M12 22.6667V24C12 25.0609 12.4215 26.0783 13.1716 26.8284C13.9218 27.5786 14.9392 28 16 28C17.0609 28 18.0783 27.5786 18.8285 26.8284C19.5786 26.0783 20 25.0609 20 24V22.6667M13.3334 6.66667C13.3334 5.95942 13.6143 5.28115 14.1144 4.78105C14.6145 4.28095 15.2928 4 16 4C16.7073 4 17.3856 4.28095 17.8857 4.78105C18.3858 5.28115 18.6667 5.95942 18.6667 6.66667C20.1979 7.3907 21.5032 8.51777 22.4428 9.92707C23.3823 11.3364 23.9206 12.9748 24 14.6667V18.6667C24.1004 19.4956 24.394 20.2894 24.8571 20.9842C25.3203 21.6789 25.9401 22.2552 26.6667 22.6667H5.33337C6.05996 22.2552 6.67979 21.6789 7.14296 20.9842C7.60613 20.2894 7.8997 19.4956 8.00004 18.6667V14.6667C8.07945 12.9748 8.61778 11.3364 9.55731 9.92707C10.4968 8.51777 11.8022 7.3907 13.3334 6.66667Z" stroke="#464646" stroke-width="2" stroke-linecap="round" stroke-linejoin="round"/>
</svg>
